<svg xmlns="http://www.w3.org/2000/svg" width="25" height="31.991" viewBox="0 0 25 31.991"><g transform="translate(-358 -742.81)"><path d="M8.251,39.358C9.285,32.339,14.488,27,20.751,27s11.466,5.339,12.5,12.358a18.657,18.657,0,0,1-25,0Z" transform="translate(349.749 730.636)" fill="#fff"/><path d="M20.751,42.165A16.618,16.618,0,0,0,31.075,38.58a13.493,13.493,0,0,0-3.528-6.619A9.64,9.64,0,0,0,20.751,29a9.64,9.64,0,0,0-6.8,2.961,13.493,13.493,0,0,0-3.528,6.619,16.618,16.618,0,0,0,10.324,3.584m0,2a18.587,18.587,0,0,1-12.5-4.806C9.285,32.339,14.488,27,20.751,27s11.466,5.339,12.5,12.358A18.587,18.587,0,0,1,20.751,44.165Z" transform="translate(349.749 730.636)" fill="#6c9bd2"/><circle cx="6.5" cy="6.5" r="6.5" transform="translate(364 742.81)" fill="#fff"/><path d="M6.5,2A4.5,4.5,0,1,0,11,6.5,4.505,4.505,0,0,0,6.5,2m0-2A6.5,6.5,0,1,1,0,6.5,6.5,6.5,0,0,1,6.5,0Z" transform="translate(364 742.81)" fill="#6c9bd2"/></g></svg>