<svg xmlns="http://www.w3.org/2000/svg" xmlns:xlink="http://www.w3.org/1999/xlink" width="46.362" height="37.482" viewBox="0 0 46.362 37.482"><defs><clipPath id="a"><rect width="19" height="5" fill="none"/></clipPath></defs><g transform="translate(-255 -738)"><path d="M37.865,29.921a14.936,14.936,0,0,1-7.408,1.912,14.684,14.684,0,0,1-8.181-2.386l-.245-.163-.245.163A14.685,14.685,0,0,1,13.6,31.834c-7.225,0-13.1-4.888-13.1-10.9a9.672,9.672,0,0,1,2.669-6.589l.164-.179-.066-.232A9.19,9.19,0,0,1,2.907,11.4C2.907,5.388,8.786.5,16.011.5a14.392,14.392,0,0,1,9.834,3.7l.2.186.255-.092a14.128,14.128,0,0,1,4.762-.809c6.562,0,11.9,4.352,11.9,9.7a8.05,8.05,0,0,1-.449,2.648c-.017.163-.041.4-.068.7a9.246,9.246,0,0,1-.078,8.958,48.673,48.673,0,0,0,1.012,6.208c.373,1.621.624,2.48.624,2.48A57.816,57.816,0,0,0,37.865,29.921Z" transform="translate(255.5 738.5)" fill="#fff"/><path d="M45.862,36.982l-2.493-2.033h0a57.426,57.426,0,0,0-5.53-3.875,16.022,16.022,0,0,1-7.381,1.759,15.737,15.737,0,0,1-8.426-2.354A15.739,15.739,0,0,1,13.6,32.834c-7.776,0-14.1-5.336-14.1-11.9a10.6,10.6,0,0,1,2.722-7.03A10.183,10.183,0,0,1,1.907,11.4c0-6.559,6.327-11.9,14.1-11.9a15.476,15.476,0,0,1,10.27,3.739,15.173,15.173,0,0,1,4.778-.757A14.3,14.3,0,0,1,40.1,5.552a9.82,9.82,0,0,1,3.857,7.632,9.049,9.049,0,0,1-.466,2.863c-.009.09-.019.185-.028.282a10.23,10.23,0,0,1-.077,9.362,48.536,48.536,0,0,0,.963,5.777c.36,1.567.607,2.416.61,2.425Zm-7.986-8.22.5.3c1.529.914,2.9,1.846,3.968,2.61a50.065,50.065,0,0,1-.978-6.1l-.028-.307L41.489,25a8.246,8.246,0,0,0,.07-8l-.14-.263.027-.3c.023-.252.046-.491.069-.712l.012-.114.038-.108a7.06,7.06,0,0,0,.394-2.32A7.86,7.86,0,0,0,38.838,7.1a12.294,12.294,0,0,0-7.779-2.62,13.13,13.13,0,0,0-4.426.751l-.833.3-.643-.609A13.383,13.383,0,0,0,16.011,1.5c-6.674,0-12.1,4.439-12.1,9.9a8.19,8.19,0,0,0,.32,2.265l.221.77-.54.592A8.69,8.69,0,0,0,1.5,20.938c0,5.457,5.429,9.9,12.1,9.9a13.689,13.689,0,0,0,7.628-2.219l.8-.531.8.531a13.688,13.688,0,0,0,7.628,2.219,13.925,13.925,0,0,0,6.912-1.78Z" transform="translate(255.5 738.5)" fill="#f2d95c"/><g transform="translate(268.5 753.5)" clip-path="url(#a)"><g transform="translate(-268 -755)"><g transform="translate(268 755)" fill="#fff" stroke="#f2d95c" stroke-width="2"><circle cx="2.5" cy="2.5" r="2.5" stroke="none"/><circle cx="2.5" cy="2.5" r="1.5" fill="none"/></g></g><g transform="translate(-261 -755)"><g transform="translate(268 755)" fill="#fff" stroke="#f2d95c" stroke-width="2"><circle cx="2.5" cy="2.5" r="2.5" stroke="none"/><circle cx="2.5" cy="2.5" r="1.5" fill="none"/></g></g><g transform="translate(-254 -755)"><g transform="translate(268 755)" fill="#fff" stroke="#f2d95c" stroke-width="2"><circle cx="2.5" cy="2.5" r="2.5" stroke="none"/><circle cx="2.5" cy="2.5" r="1.5" fill="none"/></g></g></g></g></svg>