<svg xmlns="http://www.w3.org/2000/svg" viewBox="0 0 424.94 91.95"><defs><style>.cls-1{fill:#fff;}</style></defs><g id="レイヤー_2" data-name="レイヤー 2"><g id="レイヤー_1-2" data-name="レイヤー 1"><path class="cls-1" d="M0,0H27.9C62.85,0,78,20.25,78,45S62.85,90,27.9,90H0ZM28.05,79.5C57.3,79.5,65.55,63,65.55,45S57.3,10.5,28.05,10.5H12v69Z"/><path class="cls-1" d="M137.7,63H101c-.9,8.25,2.55,20.4,19.35,20.4,5.7,0,13.5-3.15,17.25-7.2v8.7c-4.35,4.5-12.9,7-20.4,7-16.5,0-27-11.7-27-27.6,0-16.65,11.55-27.45,25.5-27.45,13.35,0,22.8,9.6,22.8,20.55A23.53,23.53,0,0,1,137.7,63ZM115.8,44.85c-6.3,0-12,3.6-14,10.95h25.8a5.68,5.68,0,0,0,.15-1.2C127.8,49.65,123.75,44.85,115.8,44.85Z"/><path class="cls-1" d="M150.6,90V84.45L179.85,46.8H152.1V38.85h41.7V44.4L164.55,82.05H194.4v8Z"/><path class="cls-1" d="M251.69,90l-.6-8.1c-4.34,6.75-12.89,10-19.8,10-13.64,0-24.89-11.25-24.89-27.6,0-16,11.25-27.45,24.89-27.45,6.61,0,15.46,3.3,19.8,10.05l.6-8.1h9.75V90ZM217.35,64.5c0,12.6,8.25,19,16.5,19,7.65,0,17.24-5.7,17.24-19,0-13.5-9.59-19.2-17.24-19.2C225.6,45.3,217.35,51.9,217.35,64.5Z"/><path class="cls-1" d="M354.29,90V59.7c0-9.6-3.15-14-10.8-14-7.35,0-15.3,6.45-15.3,15V90H317.24V59.7c0-9.6-3-14-10.8-14-7.35,0-15.14,6.45-15.14,15V90H280.35V38.85h9.75l.75,8.85A23,23,0,0,1,310,36.9c10,0,15,5.1,16.95,11.7,4.05-6.3,11.4-11.7,20.1-11.7,13.8,0,18.15,9.6,18.15,22.35V90Z"/><path class="cls-1" d="M384.14,21.45v-12h10.95v12Zm0,68.55V38.85h10.95V90Z"/><path class="cls-1" d="M414,21.45v-12h10.95v12ZM414,90V38.85h10.95V90Z"/></g></g></svg>