<svg xmlns="http://www.w3.org/2000/svg" viewBox="0 0 504.88 108.33"><defs><style>.cls-1{fill:#454545;}</style></defs><g id="レイヤー_2" data-name="レイヤー 2"><g id="レイヤー_1-2" data-name="レイヤー 1"><path class="cls-1" d="M0,0H32.87c41.18,0,59,23.86,59,53s-17.85,53-59,53H0ZM33.05,93.66c34.46,0,44.18-19.44,44.18-40.64S67.51,12.37,33.05,12.37H14.14V93.66Z"/><path class="cls-1" d="M162.24,74.22h-43.3c-1.06,9.72,3,24,22.8,24,6.71,0,15.9-3.71,20.32-8.48V100c-5.12,5.3-15.2,8.3-24,8.3-19.44,0-31.81-13.78-31.81-32.52,0-19.61,13.6-32.34,30-32.34,15.73,0,26.86,11.31,26.86,24.22A27.65,27.65,0,0,1,162.24,74.22Zm-25.8-21.38c-7.43,0-14.14,4.24-16.44,12.9h30.4a7,7,0,0,0,.17-1.41C150.57,58.5,145.8,52.84,136.44,52.84Z"/><path class="cls-1" d="M177.44,106V99.5L211.9,55.14H179.21V45.77h49.13v6.54L193.87,96.67H229V106Z"/><path class="cls-1" d="M296.55,106l-.71-9.54c-5.12,8-15.19,11.84-23.32,11.84-16.08,0-29.34-13.25-29.34-32.52,0-18.9,13.26-32.34,29.34-32.34,7.77,0,18.2,3.89,23.32,11.85l.71-9.55H308V106ZM256.08,76c0,14.85,9.72,22.44,19.44,22.44,9,0,20.32-6.71,20.32-22.44,0-15.9-11.31-22.62-20.32-22.62C265.8,53.37,256.08,61.15,256.08,76Z"/><path class="cls-1" d="M417.43,106V70.34c0-11.31-3.71-16.44-12.72-16.44-8.66,0-18,7.6-18,17.67V106h-12.9V70.34c0-11.31-3.53-16.44-12.72-16.44-8.66,0-17.85,7.6-17.85,17.67V106h-12.9V45.77H341.8l.88,10.43A27.09,27.09,0,0,1,365.3,43.47c11.84,0,17.67,6,20,13.79C390,49.84,398.7,43.47,409,43.47c16.26,0,21.38,11.31,21.38,26.34V106Z"/><path class="cls-1" d="M452.6,25.27V11.13h12.91V25.27Zm0,80.76V45.77h12.91V106Z"/><path class="cls-1" d="M487.77,25.27V11.13h12.9V25.27Zm0,80.76V45.77h12.9V106Z"/><circle class="cls-1" cx="458.59" cy="18.07" r="10.52"/><circle class="cls-1" cx="494.36" cy="17.01" r="10.52"/></g></g></svg>